<?xml version="1.0" encoding="UTF-8" standalone="no"?>
<svg
   xmlns:dc="http://purl.org/dc/elements/1.1/"
   xmlns:cc="http://creativecommons.org/ns#"
   xmlns:rdf="http://www.w3.org/1999/02/22-rdf-syntax-ns#"
   xmlns:svg="http://www.w3.org/2000/svg"
   xmlns="http://www.w3.org/2000/svg"
   version="1.1"
   id="svg62"
   width="119"
   height="119"
   viewBox="0 0 119 119">
  <metadata
     id="metadata68">
    <rdf:RDF>
      <cc:Work
         rdf:about="">
        <dc:format>image/svg+xml</dc:format>
        <dc:type
           rdf:resource="http://purl.org/dc/dcmitype/StillImage" />
        <dc:title></dc:title>
      </cc:Work>
    </rdf:RDF>
  </metadata>
  <defs
     id="defs66">
    <clipPath
       clipPathUnits="userSpaceOnUse"
       id="clipPath462">
      <circle
         style="fill:#ff0000;fill-rule:evenodd;stroke-width:1.29438"
         id="circle464"
         cx="130.12555"
         cy="294.57901"
         r="59.5" />
    </clipPath>
  </defs>
  <g
     id="g70"
     clip-path="url(#clipPath462)"
     transform="translate(-70.625549,-235.07901)">
    <path
       style="fill:#000000"
       d="M 0,200 V 0 H 200 400 V 200 400 H 200 0 Z m 282.81171,155.48243 c 19.52432,-4.60293 35.51275,-18.97408 42.3323,-38.05027 2.66751,-7.46177 3.60097,-22.92296 1.91191,-31.66749 -2.12153,-10.98352 -7.32453,-20.25331 -16.44988,-29.30755 -15.47009,-15.34954 -34.54106,-20.71676 -55.01003,-15.48168 -11.05237,2.82673 -18.98871,7.35809 -27.13679,15.49416 -23.45939,23.4248 -23.45939,59.636 0,83.0608 14.66829,14.64666 34.81217,20.55873 54.35249,15.95203 z m -25.53956,-4.91929 C 238.15944,345.93189 221.62417,329.46448 217.0439,310.5 c -1.58153,-6.54828 -1.43982,-19.70535 0.28004,-26 3.66339,-13.40793 14.7369,-27.60682 26.35154,-33.78895 C 249.96843,247.3615 262.64136,244 268.9763,244 c 26.64059,0 50.14122,20.05893 54.18555,46.25 5.68209,36.79719 -29.61157,69.10378 -65.8897,60.31314 z m 16.09299,-47.63572 c 3.18941,-2.50879 3.42147,-6.14081 0.57428,-8.988 -2.72796,-2.72796 -6.69144,-2.17962 -9.2642,1.28169 -1.70535,2.29431 -1.83977,3.12233 -0.85703,5.27922 0.98169,2.15455 3.86467,4.18565 6.29695,4.43628 0.33833,0.0349 1.80083,-0.86927 3.25,-2.00919 z m 17.6401,-25.52318 c 10.69382,-14.02198 11.06367,-14.67062 9.4081,-16.5 -0.94782,-1.04733 -2.21607,-1.88723 -2.81833,-1.86645 -0.95408,0.0329 -21.50628,26.74202 -22.44947,29.17473 -0.34535,0.89074 2.66915,3.69214 4.04137,3.75568 0.3778,0.0175 5.69605,-6.53629 11.81833,-14.56396 z M 271.5,276 v -12.5 h -3 -3 l -0.28452,11.43886 c -0.15648,6.29137 -0.0465,12.05901 0.24432,12.81697 0.31873,0.83061 1.62363,1.25218 3.28451,1.06114 L 271.5,288.5 Z m -125.54271,75.36686 c 20.93975,-5.9215 37.08325,-23.16732 41.5461,-44.38299 2.01981,-9.60184 1.88277,-17.15408 -0.47883,-26.38786 -2.87568,-11.2438 -7.33299,-18.96252 -15.99091,-27.69144 C 159.36726,241.14251 146.70052,236 129.39524,236 c -48.756451,0 -76.120269,58.19711 -45.037761,95.78588 15.235794,18.42498 38.988211,25.97526 61.599811,19.58098 z M 122.40211,348.003 C 102.65562,345.10762 85.48183,331.0811 78.885031,312.46087 76.017404,304.36666 75.319673,290.20419 77.390331,282.12162 83.591714,257.91525 104.91014,241 129.21622,241 c 15.2446,0 26.63767,4.43733 37.76608,14.70901 7.46994,6.89486 12.92415,15.99498 15.48931,25.84329 1.73473,6.66008 2.00575,14.03464 0.54887,14.93504 -0.6238,0.38553 -0.56797,1.26438 0.15372,2.41999 0.84751,1.35708 0.83392,3.04734 -0.0539,6.70364 C 181.1746,313.62388 177.89448,321 176.27687,321 c -0.83236,0 -1.26461,0.58957 -0.97863,1.33481 0.73751,1.92192 -5.86458,9.84549 -12.46244,14.95695 -7.13286,5.52592 -14.19456,8.58005 -23.80237,10.29432 -8.29303,1.47967 -9.22413,1.50302 -16.63132,0.41692 z M 104.5,339 c -0.33992,-0.55 -1.04148,-1 -1.55902,-1 -0.51754,0 -0.94098,0.45 -0.94098,1 0,0.55 0.70156,1 1.55902,1 0.85746,0 1.2809,-0.45 0.94098,-1 z m 2.94721,-3.08541 c -0.32197,-0.52097 -1.01165,-0.68378 -1.53262,-0.3618 -0.52097,0.32197 -0.68378,1.01165 -0.3618,1.53262 0.32197,0.52097 1.01165,0.68378 1.53262,0.3618 0.52097,-0.32197 0.68378,-1.01165 0.3618,-1.53262 z M 111,333.44098 c 0,-0.85746 -0.45,-1.2809 -1,-0.94098 -0.55,0.33992 -1,1.04148 -1,1.55902 0,0.51754 0.45,0.94098 1,0.94098 0.55,0 1,-0.70156 1,-1.55902 z m 56.45729,-1.37188 c 0.31644,-0.512 0.11799,-1.21356 -0.44098,-1.55902 -0.55897,-0.34546 -1.01631,0.0734 -1.01631,0.9309 0,1.75653 0.60006,2.01516 1.45729,0.62812 z M 93.5,331 c -0.339919,-0.55 -1.041476,-1 -1.559017,-1 C 91.423442,330 91,330.45 91,331 c 0,0.55 0.701558,1 1.559017,1 0.857459,0 1.280902,-0.45 0.940983,-1 z m 21.5,0 c 0,-0.55 -0.675,-1 -1.5,-1 -0.825,0 -1.5,0.45 -1.5,1 0,0.55 0.675,1 1.5,1 0.825,0 1.5,-0.45 1.5,-1 z m -17.552786,-2.08541 c -0.321976,-0.52097 -1.011657,-0.68378 -1.532624,-0.3618 -0.520968,0.32197 -0.683779,1.01165 -0.361804,1.53262 0.321976,0.52097 1.011657,0.68378 1.532624,0.3618 0.520968,-0.32197 0.683779,-1.01165 0.361804,-1.53262 z M 163.5,330 c 0.33992,-0.55 0.16803,-1 -0.38197,-1 -0.55,0 -1.27811,0.45 -1.61803,1 -0.33992,0.55 -0.16803,1 0.38197,1 0.55,0 1.27811,-0.45 1.61803,-1 z m -4.5,-1.55902 c 0,-0.85746 -0.45734,-1.27636 -1.01631,-0.9309 -0.55897,0.34546 -0.75742,1.04702 -0.44098,1.55902 0.85723,1.38704 1.45729,1.12841 1.45729,-0.62812 z M 102,328 c 0,-0.55 -0.70156,-1 -1.55902,-1 -0.857456,0 -1.280899,0.45 -0.94098,1 0.339919,0.55 1.04148,1 1.55902,1 0.51754,0 0.94098,-0.45 0.94098,-1 z m 16,0 c 0,-0.55 -0.45,-1 -1,-1 -0.55,0 -1,0.45 -1,1 0,0.55 0.45,1 1,1 0.55,0 1,-0.45 1,-1 z m -12,-2.05902 C 106,325.42344 105.55,325 105,325 c -0.55,0 -1,0.70156 -1,1.55902 0,0.85746 0.45,1.2809 1,0.94098 0.55,-0.33992 1,-1.04148 1,-1.55902 z M 155,327 c 0,-0.55 -0.45,-1 -1,-1 -0.55,0 -1,0.45 -1,1 0,0.55 0.45,1 1,1 0.55,0 1,-0.45 1,-1 z m -33.55279,-2.08541 c -0.32197,-0.52097 -1.01165,-0.68378 -1.53262,-0.3618 -0.52097,0.32197 -0.68378,1.01165 -0.3618,1.53262 0.32197,0.52097 1.01165,0.68378 1.53262,0.3618 0.52097,-0.32197 0.68378,-1.01165 0.3618,-1.53262 z m 14.54899,1.08744 c 1.02559,-0.54888 2.82074,-2.34057 3.98921,-3.98154 l 2.1245,-2.98359 -1.97178,-4.45753 c -1.69352,-3.82849 -2.49882,-4.55641 -5.70654,-5.15818 -5.3958,-1.01226 -8.61533,0.48942 -10.93159,5.09879 -1.1,2.18901 -2.3375,4.13002 -2.75,4.31335 -1.33723,0.59433 -0.79295,2.16667 0.75,2.16667 0.825,0 1.5,0.57077 1.5,1.26838 0,3.35302 8.91944,5.91547 12.9962,3.73365 z M 129,322.70573 c -3.6309,-1.83694 -3.55092,-7.53917 0.13477,-9.6079 2.36372,-1.32672 2.90381,-1.30257 5.25,0.23471 3.37878,2.21386 3.57985,6.87841 0.39272,9.11076 -2.65761,1.86146 -2.62018,1.85976 -5.77749,0.26243 z m 21.60417,1.5651 c -1.01652,-1.01651 -1.85525,0.51389 -1.02122,1.86338 0.63003,1.01942 0.86558,1.02021 1.2043,0.004 0.2316,-0.69479 0.14921,-1.53513 -0.18308,-1.86742 z M 110,325 c 0,-0.55 -0.45,-1 -1,-1 -0.55,0 -1,0.45 -1,1 0,0.55 0.45,1 1,1 0.55,0 1,-0.45 1,-1 z m 4,-2.05902 C 114,322.42344 113.55,322 113,322 c -0.55,0 -1,0.70156 -1,1.55902 0,0.85746 0.45,1.2809 1,0.94098 0.55,-0.33992 1,-1.04148 1,-1.55902 z M 147,324 c 0,-0.55 -0.45,-1 -1,-1 -0.55,0 -1,0.45 -1,1 0,0.55 0.45,1 1,1 0.55,0 1,-0.45 1,-1 z m -29,-2.55902 c 0,-0.85746 -0.45,-1.2809 -1,-0.94098 -0.55,0.33992 -1,1.04148 -1,1.55902 0,0.51754 0.45,0.94098 1,0.94098 0.55,0 1,-0.70156 1,-1.55902 z M 143,322 c 0,-0.55 -0.45,-1 -1,-1 -0.55,0 -1,0.45 -1,1 0,0.55 0.45,1 1,1 0.55,0 1,-0.45 1,-1 z m 21,-1.5 c 0,-0.825 -0.45,-1.5 -1,-1.5 -0.55,0 -1,0.675 -1,1.5 0,0.825 0.45,1.5 1,1.5 0.55,0 1,-0.675 1,-1.5 z m 4.5,0.5 c 0.33992,-0.55 -0.0835,-1 -0.94098,-1 -0.85746,0 -1.55902,0.45 -1.55902,1 0,0.55 0.42344,1 0.94098,1 0.51754,0 1.2191,-0.45 1.55902,-1 z m 4.5,0 c 0,-0.55 -0.45,-1 -1,-1 -0.55,0 -1,0.45 -1,1 0,0.55 0.45,1 1,1 0.55,0 1,-0.45 1,-1 z m -22,-1.5 c 0,-0.825 -0.45,-1.5 -1,-1.5 -0.55,0 -1,0.675 -1,1.5 0,0.825 0.45,1.5 1,1.5 0.55,0 1,-0.675 1,-1.5 z m 4,0.5 c 0,-0.55 -0.45,-1 -1,-1 -0.55,0 -1,0.45 -1,1 0,0.55 0.45,1 1,1 0.55,0 1,-0.45 1,-1 z m 5,0 c 0,-0.55 -0.42344,-1 -0.94098,-1 -0.51754,0 -1.2191,0.45 -1.55902,1 -0.33992,0.55 0.0835,1 0.94098,1 0.85746,0 1.55902,-0.45 1.55902,-1 z m -13.5,-1 c 0.33992,-0.55 -0.0835,-1 -0.94098,-1 -0.85746,0 -1.55902,0.45 -1.55902,1 0,0.55 0.42344,1 0.94098,1 0.51754,0 1.2191,-0.45 1.55902,-1 z m -30.69167,-2.075 c -0.19708,-0.59125 -0.78583,-1.075 -1.30833,-1.075 -0.5225,0 -1.11125,0.48375 -1.30833,1.075 -0.19709,0.59125 0.39166,1.075 1.30833,1.075 0.91667,0 1.50542,-0.48375 1.30833,-1.075 z M 120,317 c 0,-0.55 -0.45,-1 -1,-1 -0.55,0 -1,0.45 -1,1 0,0.55 0.45,1 1,1 0.55,0 1,-0.45 1,-1 z m -18,-1.5 c 0,-0.825 -0.45,-1.5 -1,-1.5 -0.55,0 -1,0.675 -1,1.5 0,0.825 0.45,1.5 1,1.5 0.55,0 1,-0.675 1,-1.5 z m 5,0.5 c 0,-0.55 -0.42344,-1 -0.94098,-1 -0.51754,0 -1.2191,0.45 -1.55902,1 -0.33992,0.55 0.0835,1 0.94098,1 0.85746,0 1.55902,-0.45 1.55902,-1 z m 4,0 c 0,-0.55 -0.45,-1 -1,-1 -0.55,0 -1,0.45 -1,1 0,0.55 0.45,1 1,1 0.55,0 1,-0.45 1,-1 z m -22.395833,-2.72917 c -1.016516,-1.01651 -1.855248,0.51389 -1.021218,1.86338 0.630035,1.01942 0.865577,1.02021 1.204302,0.004 0.231595,-0.69479 0.149207,-1.53513 -0.183084,-1.86742 z M 93,315 c 0,-0.55 -0.45,-1 -1,-1 -0.55,0 -1,0.45 -1,1 0,0.55 0.45,1 1,1 0.55,0 1,-0.45 1,-1 z m 5,0 c 0,-0.55 -0.45,-1 -1,-1 -0.55,0 -1,0.45 -1,1 0,0.55 0.45,1 1,1 0.55,0 1,-0.45 1,-1 z m -13,-1 c 0,-0.55 -0.675,-1 -1.5,-1 -0.825,0 -1.5,0.45 -1.5,1 0,0.55 0.675,1 1.5,1 0.825,0 1.5,-0.45 1.5,-1 z m 37,0 c 0,-0.55 -0.45,-1 -1,-1 -0.55,0 -1,0.45 -1,1 0,0.55 0.45,1 1,1 0.55,0 1,-0.45 1,-1 z m -4,-1 c 0,-0.55 -0.45,-1 -1,-1 -0.55,0 -1,0.45 -1,1 0,0.55 0.45,1 1,1 0.55,0 1,-0.45 1,-1 z m 25,-0.55902 c 0,-0.85746 -0.45,-1.2809 -1,-0.94098 -0.55,0.33992 -1,1.04148 -1,1.55902 0,0.51754 0.45,0.94098 1,0.94098 0.55,0 1,-0.70156 1,-1.55902 z M 114,311 c 0,-0.55 -0.45,-1 -1,-1 -0.55,0 -1,0.45 -1,1 0,0.55 0.45,1 1,1 0.55,0 1,-0.45 1,-1 z m 33.5,0 c -0.33992,-0.55 -1.04148,-1 -1.55902,-1 -0.51754,0 -0.94098,0.45 -0.94098,1 0,0.55 0.70156,1 1.55902,1 0.85746,0 1.2809,-0.45 0.94098,-1 z m -38.04271,-0.9309 c 0.31644,-0.512 0.11799,-1.21356 -0.44098,-1.55902 -0.55897,-0.34546 -1.01631,0.0734 -1.01631,0.9309 0,1.75653 0.60006,2.01516 1.45729,0.62812 z m 41.98992,-1.15451 c -0.32197,-0.52097 -1.01165,-0.68378 -1.53262,-0.3618 -0.52097,0.32197 -0.68378,1.01165 -0.3618,1.53262 0.32197,0.52097 1.01165,0.68378 1.53262,0.3618 0.52097,-0.32197 0.68378,-1.01165 0.3618,-1.53262 z M 142.075,308.725 c -0.12369,-1.1957 -1.49529,-0.96414 -1.925,0.325 -0.22,0.66 0.14,1.02 0.8,0.8 0.66,-0.22 1.16625,-0.72625 1.125,-1.125 z M 106,308 c 0,-0.55 -0.42344,-1 -0.94098,-1 -0.51754,0 -1.2191,0.45 -1.55902,1 -0.33992,0.55 0.0835,1 0.94098,1 0.85746,0 1.55902,-0.45 1.55902,-1 z m 50,0 c 0,-0.55 -0.70156,-1 -1.55902,-1 -0.85746,0 -1.2809,0.45 -0.94098,1 0.33992,0.55 1.04148,1 1.55902,1 0.51754,0 0.94098,-0.45 0.94098,-1 z m -54.55279,-2.08541 c -0.32197,-0.52097 -1.01165,-0.68378 -1.53262,-0.3618 -0.520968,0.32197 -0.683779,1.01165 -0.361804,1.53262 0.321976,0.52097 1.011654,0.68378 1.532624,0.3618 0.52097,-0.32197 0.68378,-1.01165 0.3618,-1.53262 z m 44.30265,-0.49806 c -0.95295,-0.95296 -2.86349,0.5906 -2.1533,1.7397 0.42212,0.683 0.98146,0.66575 1.69964,-0.0524 0.58876,-0.58876 0.79291,-1.34803 0.45366,-1.68727 z M 160,305.94098 C 160,305.42344 159.55,305 159,305 c -0.55,0 -1,0.70156 -1,1.55902 0,0.85746 0.45,1.2809 1,0.94098 0.55,-0.33992 1,-1.04148 1,-1.55902 z M 97,305 c 0,-0.55 -0.45,-1 -1,-1 -0.55,0 -1,0.45 -1,1 0,0.55 0.45,1 1,1 0.55,0 1,-0.45 1,-1 z m 67,0 c 0,-0.55 -0.45,-1 -1,-1 -0.55,0 -1,0.45 -1,1 0,0.55 0.45,1 1,1 0.55,0 1,-0.45 1,-1 z m -14.8962,-2.2962 c -1.28349,-1.28349 -2.58505,-0.2915 -1.63484,1.24598 0.36808,0.59556 1.12735,0.79971 1.68727,0.45366 0.683,-0.42212 0.66575,-0.98146 -0.0524,-1.69964 z M 168,302.94098 C 168,302.42344 167.55,302 167,302 c -0.55,0 -1,0.70156 -1,1.55902 0,0.85746 0.45,1.2809 1,0.94098 0.55,-0.33992 1,-1.04148 1,-1.55902 z m -75,0.059 c 0,-0.55 -0.45,-1 -1,-1 -0.55,0 -1,0.45 -1,1 0,0.55 0.45,1 1,1 0.55,0 1,-0.45 1,-1 z M 89,302.059 c 0,-0.51754 -0.45,-1.2191 -1,-1.55902 -0.55,-0.33992 -1,0.0835 -1,0.94098 0,0.85746 0.45,1.55902 1,1.55902 0.55,0 1,-0.42344 1,-0.94098 z m 48.59602,-3.00739 c 0.8689,-2.17161 3.11573,-5.11987 4.99295,-6.5517 4.0289,-3.07298 6.41103,-7.27259 6.41103,-11.30239 0,-3.9231 -3.77771,-9.31462 -8.01993,-11.44599 -6.82224,-3.42761 -18.52397,-1.35567 -23.42106,4.147 -1.93545,2.17478 -1.93227,2.18972 1.11065,5.23265 l 3.05163,3.05163 4.17396,-2.12939 c 3.64642,-1.86027 4.51716,-1.96543 6.88936,-0.83205 4.38599,2.09551 4.02103,5.16228 -1.17733,9.89321 -5.11176,4.65211 -7.53803,10.05899 -5.57516,12.4241 0.72639,0.87525 2.97164,1.4613 5.59842,1.4613 4.17362,0 4.46203,-0.19089 5.96548,-3.94837 z M 172,301.99998 c 0,-0.55 -0.45,-1 -1,-1 -0.55,0 -1,0.45 -1,1 0,0.55 0.45,1 1,1 0.55,0 1,-0.45 1,-1 z m -19.55279,-2.08541 c -0.32197,-0.52097 -1.01165,-0.68378 -1.53262,-0.3618 -0.52097,0.32197 -0.68378,1.01165 -0.3618,1.53262 0.32197,0.52097 1.01165,0.68378 1.53262,0.3618 0.52097,-0.32197 0.68378,-1.01165 0.3618,-1.53262 z m 23.65659,-0.21079 c -1.28349,-1.28349 -2.58505,-0.2915 -1.63484,1.24598 0.36808,0.59556 1.12735,0.79971 1.68727,0.45366 0.683,-0.42212 0.66575,-0.98146 -0.0524,-1.69964 z M 85,299.99998 c 0,-0.55 -0.45,-1 -1,-1 -0.55,0 -1,0.45 -1,1 0,0.55 0.45,1 1,1 0.55,0 1,-0.45 1,-1 z m -4.542705,-0.9309 c 0.316431,-0.512 0.117988,-1.21356 -0.440983,-1.55902 C 79.45734,297.1646 79,297.58346 79,298.44096 c 0,1.75653 0.600055,2.01516 1.457295,0.62812 z M 181,298.99998 c 0,-0.55 -0.70156,-1 -1.55902,-1 -0.85746,0 -1.2809,0.45 -0.94098,1 0.33992,0.55 1.04148,1 1.55902,1 0.51754,0 0.94098,-0.45 0.94098,-1 z m -25,-1.55902 c 0,-0.85746 -0.45,-1.2809 -1,-0.94098 -0.55,0.33992 -1,1.04148 -1,1.55902 0,0.51754 0.45,0.94098 1,0.94098 0.55,0 1,-0.70156 1,-1.55902 z m 4,-2.44098 c 0,-0.55 -0.675,-1 -1.5,-1 -0.825,0 -1.5,0.45 -1.5,1 0,0.55 0.675,1 1.5,1 0.825,0 1.5,-0.45 1.5,-1 z m 3.15,-2.5 c 0,-0.5225 -0.48375,-1.11125 -1.075,-1.30833 -0.59125,-0.19709 -1.075,0.39166 -1.075,1.30833 0,0.91667 0.48375,1.50542 1.075,1.30833 0.59125,-0.19708 1.075,-0.78583 1.075,-1.30833 z m 3.29721,-3.58541 c -0.32197,-0.52097 -1.01165,-0.68378 -1.53262,-0.3618 -0.52097,0.32197 -0.68378,1.01165 -0.3618,1.53262 0.32197,0.52097 1.01165,0.68378 1.53262,0.3618 0.52097,-0.32197 0.68378,-1.01165 0.3618,-1.53262 z M 170,286.99998 c 0,-0.55 -0.45,-1 -1,-1 -0.55,0 -1,0.45 -1,1 0,0.55 0.45,1 1,1 0.55,0 1,-0.45 1,-1 z m 4,-3 c 0,-0.55 -0.675,-1 -1.5,-1 -0.825,0 -1.5,0.45 -1.5,1 0,0.55 0.675,1 1.5,1 0.825,0 1.5,-0.45 1.5,-1 z m 3,-3.05902 c 0,-0.51754 -0.45,-0.94098 -1,-0.94098 -0.55,0 -1,0.70156 -1,1.55902 0,0.85746 0.45,1.2809 1,0.94098 0.55,-0.33992 1,-1.04148 1,-1.55902 z m 3.44721,-3.02639 c -0.32197,-0.52097 -1.01165,-0.68378 -1.53262,-0.3618 -0.52097,0.32197 -0.68378,1.01165 -0.3618,1.53262 0.32197,0.52097 1.01165,0.68378 1.53262,0.3618 0.52097,-0.32197 0.68378,-1.01165 0.3618,-1.53262 z m 36.69049,-23.26482 c 12.24366,-3.7109 25.26581,-13.37004 31.84269,-23.61921 10.63577,-16.57441 11.29071,-38.37771 1.69597,-56.45994 -4.26273,-8.03353 -13.78867,-17.33093 -22.38551,-21.84844 -16.57759,-8.71128 -33.95067,-8.93181 -50.859,-0.64559 -27.73057,13.58985 -38.75075,47.90702 -24.16945,75.26435 10.04755,18.85114 30.79192,30.49901 51.8753,29.12775 4.20073,-0.27322 9.60073,-1.09173 12,-1.81892 z M 194.76339,251.956 c -25.48656,-4.2314 -43.70898,-25.26286 -43.75152,-50.49592 -0.0227,-13.45121 4.56713,-25.02202 13.7404,-34.63923 9.61126,-10.0764 19.64033,-15.05236 32.97048,-16.35842 21.96599,-2.15217 43.82448,11.4465 52.33436,32.55843 3.10476,7.70253 3.84014,23.38087 1.4778,31.50704 -5.12593,17.63259 -18.55527,31.16067 -35.53491,35.7962 -7.2454,1.97803 -15.38462,2.60348 -21.23661,1.6319 z M 202.25,225.8878 c 5.63355,-5.98052 2.21753,-16.94906 -5.75,-18.46272 -4.39808,-0.83555 -9.72086,3.02188 -10.94412,7.93122 -1.47123,5.9045 0.94341,11.8093 5.44412,13.31316 4.65966,1.55697 7.92321,0.75003 11.25,-2.78166 z m -9.64301,0.53039 C 192.27314,225.54821 192,221.98501 192,218.49998 c 0,-7.55281 0.6149,-9.5 3,-9.5 2.3851,0 3,1.94719 3,9.5 0,7.55281 -0.6149,9.5 -3,9.5 -0.98231,0 -2.05917,-0.7118 -2.39301,-1.58179 z M 183,225.34499 c 0,-3.52881 -0.0657,-3.59556 -1.90191,-1.93378 -1.28018,1.15854 -3.15983,1.61783 -5.75,1.40498 L 171.5,224.49998 175,222.63301 c 5.32337,-2.8396 8.00162,-5.70993 7.98469,-8.55734 -0.0206,-3.45779 -0.96732,-4.73839 -4.49464,-6.07947 -5.68831,-2.16269 -12.85852,1.17152 -10.55045,4.90606 1.22528,1.98253 4.52005,0.86007 4.87995,-1.6625 0.41707,-2.92332 2.97931,-2.88937 3.71686,0.0493 0.84958,3.38501 -1.0504,7.40081 -5.54438,11.71863 -2.19562,2.10949 -3.99203,4.32077 -3.99203,4.91389 0,0.68133 2.9456,1.0784 8,1.0784 h 8 z m 38.96959,-0.095 c -0.0246,-3.03272 -0.22537,-3.41527 -1.04969,-2 -0.7351,1.2621 -2.29155,1.75 -5.5826,1.75 h -4.56333 l 4.83656,-3.25 c 2.6601,-1.7875 5.49669,-4.43565 6.30352,-5.88477 1.3098,-2.35247 1.28666,-2.90997 -0.21597,-5.20327 -3.17441,-4.84477 -14.19808,-4.19427 -14.19808,0.83781 0,3.09702 3.32493,3.0909 4.50324,-0.008 1.17503,-3.09057 3.34874,-2.84543 3.82875,0.43179 0.48231,3.29285 -1.48076,7.34397 -5.39893,11.14161 -5.23486,5.07353 -4.64467,5.93482 4.06694,5.93482 h 7.5 l -0.0304,-3.75 z m 12.78041,2.6699 c -1.48397,-0.86433 -1.75,-2.55545 -1.75,-11.12458 0,-9.56477 -0.0937,-10.02049 -1.75183,-8.51991 -0.96351,0.87196 -3.10101,2.12034 -4.75,2.77418 -1.64899,0.65384 -2.43567,1.39767 -1.74817,1.65294 0.84417,0.31345 1.25,2.84501 1.25,7.79747 0,4.93099 -0.40949,7.49857 -1.25,7.83772 -0.6875,0.27741 1.675,0.52623 5.25,0.55292 4.87639,0.0364 6.06287,-0.20606 4.75,-0.97074 z m -40.5,-26.58218 c -0.6875,-0.27742 -1.25,-1.5919 -1.25,-2.92106 0,-2.02654 0.49164,-2.41667 3.04545,-2.41667 1.90012,0 3.96857,-0.92311 5.5,-2.45455 6.04383,-6.04383 0.34281,-17.92233 -6.51906,-13.58292 -0.94861,0.59989 -1.71119,0.54747 -2.14049,-0.14715 -0.41687,-0.6745 -2.06897,-0.81602 -4.40665,-0.37747 -2.78048,0.52163 -3.44984,0.9915 -2.6095,1.83184 1.62549,1.62549 1.51939,19.40656 -0.11975,20.06797 -0.6875,0.27741 1.225,0.50439 4.25,0.50439 3.025,0 4.9375,-0.22698 4.25,-0.50439 z m -0.58333,-7.00439 c -1.08141,-1.0814 -0.76102,-11.15698 0.37713,-11.8604 1.99138,-1.23074 3.9562,1.72405 3.9562,5.94951 0,4.92162 -2.25148,7.99275 -4.33333,5.91089 z m -25.62684,0.21466 c -1.9947,-2.40348 -0.31692,-5.548 2.96017,-5.548 3.27709,0 4.95487,3.14452 2.96017,5.54799 -1.0317,1.24312 -0.30198,1.45201 5.07237,1.45201 5.88373,0 6.18328,-0.10976 4.77624,-1.75 -0.82565,-0.9625 -3.02691,-5.92984 -4.89167,-11.03854 -4.48164,-12.27789 -5.9396,-12.23793 -10.52818,0.28854 -1.81323,4.95 -3.77134,9.7875 -4.35133,10.75 -0.9151,1.51858 -0.64052,1.75 2.07637,1.75 2.62367,0 2.93568,-0.23525 1.92586,-1.45201 z m 1.43305,-9.29594 c 0.74115,-2.95301 1.28098,-3.83152 1.94584,-3.16667 0.23029,0.2303 0.72907,1.6553 1.1084,3.16667 0.59692,2.37827 0.39148,2.74794 -1.52712,2.74794 -1.9186,0 -2.12404,-0.36967 -1.52712,-2.74795 z M 214.25,195.3377 c -0.80148,-0.32341 -1.25,-2.61839 -1.25,-6.39605 v -5.89167 l 2.9846,0.59692 c 2.20802,0.4416 3.14597,0.1764 3.60478,-1.01926 1.19216,-3.1067 2.41062,-0.46247 2.41062,5.23136 0,3.15754 -0.54,6.28098 -1.2,6.94098 -0.93333,0.93333 1.06667,1.2 9,1.2 6.13333,0 10.2,-0.39869 10.2,-1 0,-0.55 -0.45,-1 -1,-1 -0.6067,0 -1,-4.37221 -1,-11.11663 0,-11.04035 -0.0154,-11.1125 -2.25,-10.51366 -1.2375,0.33164 -3.0926,0.60913 -4.12244,0.61664 -1.4907,0.0109 -1.63569,0.29893 -0.71115,1.41293 0.74951,0.90311 1.05888,4.71502 0.87245,10.75 -0.2322,7.5167 -0.58306,9.35072 -1.78886,9.35072 -1.17823,0 -1.56245,-1.65146 -1.79114,-7.69863 l -0.29114,-7.69862 -6.29103,0.28588 c -3.46006,0.15724 -6.77812,0.58692 -7.37345,0.95486 -0.59533,0.36793 -1.25569,0.14917 -1.46746,-0.48614 -0.25938,-0.77816 -1.6351,-0.9206 -4.21566,-0.43648 -2.84805,0.53429 -3.54071,1.00854 -2.70037,1.84888 1.50513,1.50513 1.45098,12.00952 -0.0697,13.53025 -0.93333,0.93333 0.0111,1.18246 4.25,1.12105 2.9975,-0.0434 4.8875,-0.30592 4.2,-0.58333 z m 13.5583,-20.00183 c 0.3201,-2.24703 -2.7858,-4.08586 -4.79935,-2.84142 -1.1591,0.71636 -1.35057,3.83057 -0.3001,4.88105 1.44233,1.44233 4.79441,0.10159 5.09945,-2.03963 z m -123.86119,49.11495 c 9.50346,-2.23998 18.68229,-7.17562 25.94443,-13.95084 12.39071,-11.55993 18.01737,-23.65243 18.84471,-40.5 0.84591,-17.22578 -3.93613,-30.56696 -15.37304,-42.88853 -31.78335,-34.24182 -87.802469,-19.72227 -99.882764,25.88853 -2.131116,8.04632 -1.881262,21.08188 0.575398,30.0201 5.438846,19.78848 22.731625,36.5867 42.622443,41.40348 7.766755,1.88081 19.355729,1.89239 27.268823,0.0273 z m -24.890673,-4.5413 c -13.058266,-2.56056 -29.571111,-14.86451 -35.860857,-26.7204 -9.39565,-17.71039 -8.77382,-38.77661 1.615533,-54.73065 19.109727,-29.34516 58.013497,-34.07761 82.988727,-10.09515 11.26565,10.81783 16.56246,23.39666 16.48003,39.13668 -0.0789,15.06968 -4.87597,26.55812 -15.63318,37.4398 -12.755,12.9026 -31.411458,18.53439 -49.590253,14.96974 z M 102,208.45964 c 0,-0.84718 -2.025,-9.60403 -4.5,-19.45966 -2.475,-9.85563 -4.5,-18.3501 -4.5,-18.87661 0,-0.52651 7.7625,-3.53031 17.25,-6.67512 9.4875,-3.14481 17.54525,-5.88264 17.90612,-6.08405 1.02451,-0.57183 -0.25935,-4.36422 -1.47744,-4.36422 -0.59844,0 -17.64548,5.49702 -37.882327,12.21561 -34.061352,11.30829 -36.747977,12.36672 -36.171081,14.25 0.342751,1.11891 0.773525,2.20313 0.957277,2.40938 0.183751,0.20624 7.841604,-2.1675 17.017451,-5.27499 9.175847,-3.10749 16.818643,-5.51469 16.983992,-5.34934 0.165349,0.16535 -1.687229,8.16409 -4.116842,17.77499 -2.429612,9.61089 -4.428653,18.26185 -4.442313,19.22435 -0.02224,1.56666 1.179987,1.75 11.475163,1.75 9.6894,0 11.5,-0.24252 11.5,-1.54034 z M 56.638374,164.5 C 57.026133,163.48952 58.612693,163 61.5,163 c 2.887307,0 4.473867,0.48952 4.861626,1.5 0.364101,0.94883 1.897959,1.5 4.174377,1.5 4.32551,0 4.396381,0.39165 -2.6213,-14.48583 C 65.186969,145.73138 62.357049,141 61.625993,141 60.590083,141 49,163.51896 49,165.53168 c 0,1.27909 7.12071,0.31733 7.638374,-1.03168 z m 3.754637,-8.08179 c 0.333844,-0.86998 0.61388,-1.88248 0.622302,-2.25 0.0205,-0.8947 1.949828,2.12442 1.969374,3.08179 0.0084,0.4125 -0.707832,0.75 -1.591676,0.75 -1.054521,0 -1.398311,-0.5438 -1,-1.58179 z m 58.715519,-7.30391 c 2.4545,-3.03118 2.39472,-5.61105 -0.18989,-8.19566 -1.9082,-1.9082 -1.9498,-2.22673 -0.5,-3.82874 2.15678,-2.38322 1.9859,-5.68536 -0.41864,-8.0899 -1.61905,-1.61905 -3.33333,-2 -9,-2 h -7 v 12.6093 12.6093 l 7.60853,-0.38421 c 6.50835,-0.32866 7.88203,-0.72198 9.5,-2.72009 z M 109,144.40638 C 109,142.66667 109.55408,142 111,142 c 1.29205,0 2,0.66667 2,1.88337 0,1.04236 -0.89308,2.11691 -2,2.40638 -1.59081,0.41601 -2,0.0307 -2,-1.88337 z M 109,134.5 c 0,-1.98234 0.43925,-2.56206 1.75,-2.30963 0.9625,0.18536 1.75,1.22469 1.75,2.30963 0,1.08494 -0.7875,2.12427 -1.75,2.30963 C 109.43925,137.06206 109,136.48234 109,134.5 Z m 217.94711,89.95084 c 10.84729,-2.55672 18.69097,-7.07662 27.66096,-15.93955 12.06226,-11.91829 17.40412,-24.72138 17.38006,-41.65563 -0.0318,-22.3646 -12.52134,-42.61209 -32.28346,-52.33641 -17.11892,-8.42367 -34.85564,-8.41858 -52.6146,0.0151 -5.69727,2.70562 -9.26135,5.37369 -15.03596,11.25592 C 260.24183,137.82272 255,150.48912 255,167 c 0,17.04911 5.16044,29.36193 17.4111,41.54288 8.78137,8.73141 16.62292,13.30632 27.19002,15.86318 7.83966,1.89691 19.40767,1.91586 27.34599,0.0448 z m -24.89067,-4.5413 c -8.06759,-1.58197 -18.76263,-7.46118 -25.71188,-14.13419 C 265.11633,194.99344 259.63921,182.28033 259.63921,167 c 0,-14.37436 4.36922,-25.56692 14.0842,-36.07927 10.49784,-11.35946 21.7356,-16.74395 36.77659,-17.6212 30.91057,-1.80284 56.88943,22.71976 56.88943,53.70047 0,34.07455 -31.45941,59.55176 -65.33299,52.90954 z m -20.46695,-42.08259 1.64084,-3.17305 1.8626,2.42305 c 1.02443,1.33268 1.8726,2.76055 1.88483,3.17305 0.0265,0.89537 8.02224,1.02575 8.02224,0.13081 0,-0.34055 -1.58899,-3.23495 -3.53109,-6.43198 l -3.53108,-5.8128 3.53108,-5.51998 C 293.41101,159.58006 295,156.84946 295,156.54804 295,156.24662 293.25175,156 291.11501,156 c -3.10752,0 -4.23547,0.5349 -5.63634,2.67289 l -1.75135,2.6729 -1.94706,-2.6729 C 280.23447,156.55088 279.01431,156 275.85991,156 h -3.97327 l 2.61776,4.25 c 5.19,8.4261 5.16873,8.16267 1.14841,14.2177 -2.00905,3.02584 -3.65281,5.73345 -3.65281,6.01692 0,0.28346 1.78844,0.51538 3.97432,0.51538 3.45266,0 4.18969,-0.41648 5.61517,-3.17305 z M 350.00318,175.25 c 0.003,-5.03583 0.49921,-6.49522 3.99682,-11.75 2.1965,-3.3 3.99507,-6.3375 3.99682,-6.75 0.002,-0.4125 -1.45932,-0.75406 -3.24682,-0.75901 -2.44029,-0.007 -3.89812,0.77947 -5.85142,3.15582 l -2.60141,3.16484 -1.86419,-3.15583 C 342.85878,156.49092 341.97462,156 338.74921,156 c -3.64495,0 -3.76548,0.10287 -2.6364,2.25 0.65075,1.2375 2.46658,4.13108 4.03519,6.43018 2.36364,3.46438 2.852,5.21954 2.852,10.25 V 181 h 3.5 3.5 l 0.003,-5.75 z M 315,178 c 0,-1.80952 0.66667,-2 7,-2 6.8,0 7,-0.0714 7,-2.5 0,-2.42857 -0.2,-2.5 -7,-2.5 -6.8,0 -7,-0.0714 -7,-2.5 0,-1.375 -0.23623,-2.5 -0.52496,-2.5 -0.28873,0 -3.76326,1.63078 -7.72118,3.62395 l -7.19621,3.62396 6.47117,3.32752 C 313.61958,180.47865 315,180.69786 315,178 Z m 9.48107,-12.21463 C 328.06648,164.01732 331,162.31391 331,162 c 0,-0.5367 -12.48241,-7 -13.51893,-7 -0.26459,0 -0.48107,0.9 -0.48107,2 0,1.80952 -0.66667,2 -7,2 h -7 v 3 3 h 7 c 6.33333,0 7,0.19048 7,2 0,1.1 0.21648,2 0.48107,2 0.26458,0 3.41458,-1.44658 7,-3.21463 z M 222.5,139.87339 c 9.21433,-3.02471 20.78138,-10.97435 26.79767,-18.41714 C 277.33634,86.76944 258.87816,35.60512 215,26.38633 c -37.16948,-7.809294 -72.21787,23.12386 -69.71517,61.52951 0.98014,15.04084 6.64949,27.24607 17.75219,38.21771 7.63759,7.54743 17.62532,13.03848 27.96298,15.37346 8.942,2.01975 22.5149,1.31584 31.5,-1.63362 z m -31.86592,-3.45985 c -3.22626,-0.78091 -8.62626,-2.86724 -12,-4.63629 -8.05968,-4.22616 -19.5055,-15.61743 -22.87356,-22.76455 l -2.58587,-5.48729 5.10009,-1.90251 c 9.43538,-3.51971 18.1153,-14.76565 20.16234,-26.1229 1.78425,-9.89919 7.91637,-18.35842 16.05564,-22.14869 15.10651,-7.03475 31.30578,3.23157 35.37696,22.42021 2.50116,11.7887 9.84867,21.26262 19.63653,25.31946 l 5.42919,2.25027 -3.2177,6.07938 c -4.12433,7.79232 -14.51105,18.17606 -22.31077,22.30437 -11.31946,5.99127 -26.03771,7.77105 -38.77285,4.68854 z M 180.06957,97.41618 c 0.92947,-1.11995 1.01763,-2.05439 0.301,-3.19048 -1.46605,-2.32417 -2.91548,-2.53793 -4.75252,-0.7009 -1.22412,1.22412 -1.36446,2.08052 -0.58088,3.54465 1.25366,2.34249 3.26126,2.48081 5.0324,0.34673 z m 7.73453,-1.54698 c 0.34785,-2.98981 -2.22494,-4.59475 -4.43085,-2.76401 -1.70145,1.41208 -1.75337,3.11469 -0.14406,4.724 1.91577,1.91577 4.23982,0.92011 4.57491,-1.95999 z m 7.57177,0.89956 c 1.39189,-2.21025 -1.20298,-5.15607 -3.69833,-4.19852 -1.66955,0.64067 -2.31289,4.46107 -0.9763,5.79766 1.10671,1.10672 3.48243,0.29401 4.67463,-1.59914 z m 7.58696,0.30069 c 0.77991,-1.45727 0.64844,-2.31532 -0.53624,-3.5 C 201.56339,92.70625 200.69643,92 200.5,92 c -0.19643,0 -1.06339,0.70625 -1.92659,1.56945 C 196.76391,95.37894 198.04855,99 200.5,99 c 0.7863,0 1.89457,-0.86875 2.46283,-1.93055 z m 7.84127,-1.20025 c 0.34785,-2.98981 -2.22494,-4.59475 -4.43085,-2.76401 -1.70145,1.41208 -1.75337,3.11469 -0.14406,4.724 1.91577,1.91577 4.23982,0.92011 4.57491,-1.95999 z M 217.8,97.8 c 1.75137,-1.75137 1.4701,-3.58508 -0.73055,-4.76283 -2.74494,-1.46905 -5.50133,1.28734 -4.03228,4.03228 1.17775,2.20065 3.01146,2.48192 4.76283,0.73055 z m 8.0041,-1.9308 c 0.34785,-2.98981 -2.22494,-4.59475 -4.43085,-2.76401 -1.70145,1.41208 -1.75337,3.11469 -0.14406,4.724 1.91577,1.91577 4.23982,0.92011 4.57491,-1.95999 z m 6.61411,2.52381 c 1.94609,-0.74678 2.06443,-3.74756 0.20854,-5.28782 C 230.66506,91.47713 228,92.8222 228,95.44032 c 0,3.36733 1.21744,4.18094 4.41821,2.95269 z M 199.25663,78.87017 c 2.33021,-3.13546 1.68403,-6.20772 -1.78351,-8.47974 -6.17865,-4.0484 -12.66683,4.41586 -7.41254,9.67015 2.70335,2.70335 6.68538,2.18789 9.19605,-1.19041 z M 219,80 c 2.48237,-2.48238 2.54444,-5.10608 0.18957,-8.01422 -3.88666,-4.79982 -12.12402,-0.98702 -10.69637,4.95099 C 209.71499,82.01857 215.34114,83.65886 219,80 Z M 151.0659,96.29824 C 149.59362,90.99641 149.7606,76.48263 151.36271,70.5 155.27665,55.88451 166.59848,42.13262 180,35.71616 217.55193,17.736808 260.23509,45.8986 257.72789,87 256.94203,99.882892 256.2423,100.69475 249.07571,97.03862 241.14006,92.99016 235.87714,85.52029 233.36085,74.73393 230.65017,63.1143 223.31609,53.3598 214.3175,49.40585 208.62961,46.90661 198.5259,47.10834 193.2778,49.82593 183.39697,54.94245 178.40669,61.67907 175,74.5 c -3.73898,14.07148 -10.0151,21.63132 -20.68968,24.92156 -1.89002,0.58256 -2.33401,0.15515 -3.24442,-3.12332 z"
       id="path74" />
  </g>
</svg>
